<svg width="50" height="50" viewBox="0 0 50 50" fill="none" xmlns="http://www.w3.org/2000/svg">
<path fill-rule="evenodd" clip-rule="evenodd" d="M6 0C2.68629 0 0 2.68629 0 6V44C0 47.3137 2.68629 50 6 50H44C47.3137 50 50 47.3137 50 44V6C50 2.68629 47.3137 0 44 0H6ZM37.1469 21.7013C37.0212 21.6534 36.8871 21.6311 36.7526 21.6357L33.9676 21.6369V19.8651H36.7538C37.0111 19.8535 37.254 19.7441 37.4322 19.5597C37.6104 19.3753 37.7102 19.13 37.711 18.8746C37.7117 18.6192 37.6134 18.3733 37.4363 18.1878C37.2592 18.0024 37.017 17.8916 36.7598 17.8784H32.9682C32.4179 17.8784 31.9712 18.3273 31.9712 18.8741V26.3863C31.9715 26.6486 32.0766 26.9001 32.2634 27.0858C32.4503 27.2715 32.7037 27.3763 32.9682 27.3773H36.7526C36.888 27.3838 37.0232 27.363 37.1502 27.3162C37.2772 27.2694 37.3933 27.1974 37.4915 27.1048C37.5896 27.0121 37.6677 26.9006 37.7211 26.7771C37.7745 26.6536 37.802 26.5206 37.802 26.3863C37.802 26.2519 37.7745 26.1189 37.7211 25.9954C37.6677 25.8719 37.5896 25.7605 37.4915 25.6678C37.3933 25.5751 37.2772 25.5032 37.1502 25.4564C37.0232 25.4095 36.888 25.3887 36.7526 25.3953H33.9664V23.6236H36.7526C36.8871 23.6282 37.0212 23.6059 37.1469 23.558C37.2726 23.5101 37.3872 23.4376 37.484 23.3449C37.5809 23.2521 37.6579 23.141 37.7104 23.0181C37.763 22.8952 37.7901 22.7631 37.7901 22.6296C37.7901 22.4961 37.763 22.364 37.7104 22.2411C37.6579 22.1182 37.5809 22.0071 37.484 21.9144C37.3872 21.8216 37.2726 21.7491 37.1469 21.7013ZM30.3398 27.0851C30.5281 26.8997 30.6349 26.6482 30.6371 26.3851L30.6347 18.8718C30.6347 18.3249 30.1821 17.8761 29.6294 17.8761C29.0767 17.8761 28.63 18.3249 28.63 18.8718V23.522L24.7217 18.2812C24.5299 18.0473 24.2441 17.8808 23.9344 17.8808C23.8289 17.8796 23.7241 17.8968 23.6246 17.9316C23.222 18.0674 22.9421 18.4477 22.9421 18.8718V26.3839C22.9421 26.6467 23.0474 26.8988 23.2348 27.0846C23.4222 27.2705 23.6764 27.3749 23.9415 27.3749C24.2066 27.3749 24.4608 27.2705 24.6482 27.0846C24.8356 26.8988 24.9409 26.6467 24.9409 26.3839V21.7526L28.8182 26.9816C28.9137 27.1052 29.037 27.2051 29.1782 27.2734C29.3194 27.3417 29.4747 27.3764 29.6318 27.3749C29.8971 27.3746 30.1515 27.2704 30.3398 27.0851ZM21.2212 27.0865C21.4097 26.9008 21.5162 26.6486 21.5175 26.3851L21.5186 18.873C21.5186 18.3261 21.0708 17.8772 20.5192 17.8772C19.9665 17.8772 19.5199 18.3261 19.5199 18.873V26.3851C19.5202 26.6466 19.6246 26.8974 19.8104 27.083C19.9962 27.2686 20.2484 27.3739 20.5121 27.3761C20.7778 27.3764 21.0328 27.2723 21.2212 27.0865ZM13.8105 27.3761H17.6021C17.8671 27.3761 18.1213 27.2717 18.3087 27.0858C18.4962 26.9 18.6015 26.6479 18.6015 26.3851C18.6015 26.1223 18.4962 25.8702 18.3087 25.6844C18.1213 25.4985 17.8671 25.3941 17.6021 25.3941H14.8099V18.873C14.8099 18.3261 14.3632 17.8772 13.8105 17.8772C13.2578 17.8772 12.8052 18.3261 12.8052 18.873V26.3851C12.8074 26.6483 12.9142 26.9 13.1024 27.0855C13.2907 27.2711 13.5451 27.3755 13.8105 27.3761ZM25.0588 7C35.5614 7 44.1176 13.8838 44.1176 22.342C44.1176 25.7201 42.8085 28.7722 40.0724 31.7428C36.0713 36.3091 27.1374 41.8818 25.0838 42.7311C23.1182 43.5463 23.3249 42.2967 23.411 41.7764C23.4146 41.7547 23.418 41.7342 23.421 41.7153L23.6818 40.1101C23.7438 39.6105 23.8117 38.8782 23.6199 38.4057C23.4019 37.8824 22.5585 37.6049 21.9379 37.4761C12.7814 36.2702 6 29.9215 6 22.342C6 13.8838 14.5562 7 25.0588 7Z" fill="white"/>
</svg>
