<svg width="50" height="40" viewBox="0 0 50 40" fill="none" xmlns="http://www.w3.org/2000/svg">
<path d="M50 11.52V31.875C50.0001 33.9503 49.2061 35.9471 47.7808 37.4556C46.3555 38.9641 44.407 39.87 42.335 39.9875L41.875 40H8.125C6.04966 40.0001 4.05293 39.2061 2.54442 37.7808C1.03592 36.3555 0.129997 34.407 0.0125003 32.335L0 31.875V11.52L24.13 24.16C24.3984 24.3006 24.697 24.3741 25 24.3741C25.303 24.3741 25.6016 24.3006 25.87 24.16L50 11.52ZM8.125 5.90127e-08H41.875C43.889 -0.000242537 45.8312 0.747489 47.3251 2.09817C48.819 3.44885 49.758 5.3062 49.96 7.31L25 20.385L0.0400001 7.31C0.233808 5.38578 1.10762 3.59379 2.50437 2.25616C3.90112 0.918522 5.7292 0.122967 7.66 0.0125003L8.125 5.90127e-08H41.875H8.125Z" fill="white"/>
</svg>
