<svg width="126" height="32" viewBox="0 0 126 32" fill="none" xmlns="http://www.w3.org/2000/svg">
<path d="M24.48 13.888C24 15.232 23.04 16.736 21.6 18.4C21.216 16.832 21.056 15.68 20.8 13.024L25.888 12.608C27.168 12.48 28.16 12.448 29.44 12.448L29.184 7.71197C27.008 7.99997 26.816 8.03197 25.6 8.12797L25.216 8.15997L28.704 6.04797C27.456 4.06397 26.368 2.78397 24.576 1.05597L20.768 3.23197C22.464 4.92797 23.392 6.11197 24.608 8.19197L20.576 8.51197C20.512 7.29597 20.48 5.91997 20.48 4.73597C20.48 2.71997 20.512 1.98397 20.672 1.08797H15.296C15.424 1.88797 15.456 2.17597 15.456 3.16797C15.52 6.94397 15.52 6.94397 15.616 8.89597L14.528 8.99197C13.632 9.05597 12.672 9.11997 11.84 9.11997V6.17597C10.944 6.23997 10.24 6.27197 9.28 6.27197H8.8V4.12797C8.8 2.49597 8.832 1.79197 8.96 0.83197H3.84C3.968 1.82397 4 2.52797 4 4.12797V6.27197H3.232C2.016 6.27197 1.152 6.23997 0.256 6.11197V10.88C1.248 10.784 1.888 10.752 3.008 10.752H4V15.776C2.208 16.16 1.088 16.32 0 16.384L0.864 21.408C1.12 21.312 2.176 21.056 4 20.608V25.024C4 25.856 3.84 26.016 3.04 26.016C2.336 26.016 1.344 25.952 0.064 25.824C0.704 27.776 0.928 28.672 1.088 30.592C2.208 30.656 2.656 30.688 3.36 30.688C7.488 30.688 8.8 29.76 8.8 26.848V19.296C9.888 18.944 10.208 18.848 11.776 18.304V13.856C12.672 13.728 12.96 13.696 14.784 13.536L15.936 13.44C16.352 17.536 16.736 19.584 17.6 22.08C15.008 24 12.864 25.056 9.216 26.208C10.656 27.584 11.488 28.672 12.576 30.464C15.68 29.056 17.408 28.064 19.616 26.432C21.472 29.408 23.616 31.04 25.696 31.04C26.976 31.04 28.032 30.4 28.736 29.152C29.408 27.904 29.792 26.72 30.24 24.096C28.576 23.424 27.616 22.848 26.368 21.664C26.144 24.064 25.728 25.632 25.344 25.632C25.024 25.632 24.16 24.544 23.36 23.136C25.024 21.44 25.888 20.384 27.744 17.728C28.416 16.768 28.608 16.544 28.928 16.096L24.48 13.888ZM8.8 10.752H8.992C9.664 10.752 10.368 10.784 11.104 10.816L11.264 13.856C10.24 14.176 9.6 14.336 9.344 14.432C9.248 14.464 9.056 14.496 8.8 14.56V10.752Z" fill="#F7F6F6"/>
<path d="M56.48 13.888C56 15.232 55.04 16.736 53.6 18.4C53.216 16.832 53.056 15.68 52.8 13.024L57.888 12.608C59.168 12.48 60.16 12.448 61.44 12.448L61.184 7.71197C59.008 7.99997 58.816 8.03197 57.6 8.12797L57.216 8.15997L60.704 6.04797C59.456 4.06397 58.368 2.78397 56.576 1.05597L52.768 3.23197C54.464 4.92797 55.392 6.11197 56.608 8.19197L52.576 8.51197C52.512 7.29597 52.48 5.91997 52.48 4.73597C52.48 2.71997 52.512 1.98397 52.672 1.08797H47.296C47.424 1.88797 47.456 2.17597 47.456 3.16797C47.52 6.94397 47.52 6.94397 47.616 8.89597L46.528 8.99197C45.632 9.05597 44.672 9.11997 43.84 9.11997V6.17597C42.944 6.23997 42.24 6.27197 41.28 6.27197H40.8V4.12797C40.8 2.49597 40.832 1.79197 40.96 0.83197H35.84C35.968 1.82397 36 2.52797 36 4.12797V6.27197H35.232C34.016 6.27197 33.152 6.23997 32.256 6.11197V10.88C33.248 10.784 33.888 10.752 35.008 10.752H36V15.776C34.208 16.16 33.088 16.32 32 16.384L32.864 21.408C33.12 21.312 34.176 21.056 36 20.608V25.024C36 25.856 35.84 26.016 35.04 26.016C34.336 26.016 33.344 25.952 32.064 25.824C32.704 27.776 32.928 28.672 33.088 30.592C34.208 30.656 34.656 30.688 35.36 30.688C39.488 30.688 40.8 29.76 40.8 26.848V19.296C41.888 18.944 42.208 18.848 43.776 18.304V13.856C44.672 13.728 44.96 13.696 46.784 13.536L47.936 13.44C48.352 17.536 48.736 19.584 49.6 22.08C47.008 24 44.864 25.056 41.216 26.208C42.656 27.584 43.488 28.672 44.576 30.464C47.68 29.056 49.408 28.064 51.616 26.432C53.472 29.408 55.616 31.04 57.696 31.04C58.976 31.04 60.032 30.4 60.736 29.152C61.408 27.904 61.792 26.72 62.24 24.096C60.576 23.424 59.616 22.848 58.368 21.664C58.144 24.064 57.728 25.632 57.344 25.632C57.024 25.632 56.16 24.544 55.36 23.136C57.024 21.44 57.888 20.384 59.744 17.728C60.416 16.768 60.608 16.544 60.928 16.096L56.48 13.888ZM40.8 10.752H40.992C41.664 10.752 42.368 10.784 43.104 10.816L43.264 13.856C42.24 14.176 41.6 14.336 41.344 14.432C41.248 14.464 41.056 14.496 40.8 14.56V10.752Z" fill="#F7F6F6"/>
<path d="M73.312 7.16797V10.528H81.504V7.16797H73.312ZM85.6 23.872V27.264H91.136V23.872H85.6ZM84.384 4.51197V29.76H87.424V7.90397H89.76V29.504H92.96V4.51197H84.384ZM80.288 7.16797V7.93597C79.968 21.216 79.648 25.696 79.008 26.656C78.72 27.136 78.496 27.232 78.08 27.232C77.6 27.232 76.864 27.232 76 27.136C76.512 28.096 76.832 29.536 76.864 30.528C78.016 30.592 79.072 30.56 79.84 30.4C80.736 30.208 81.312 29.888 81.92 28.896C82.88 27.52 83.168 22.656 83.52 8.73597C83.552 8.28797 83.552 7.16797 83.552 7.16797H80.288ZM75.264 1.05597C75.232 14.144 75.456 23.264 70.688 28.672C71.488 29.184 72.64 30.336 73.152 31.168C78.464 25.12 78.464 14.944 78.528 1.05597H75.264ZM66.624 3.07197V6.11197H69.568V20.32H66.624V23.36H72.512V3.07197H66.624ZM64.8 3.07197V26.112H67.712V3.07197H64.8Z" fill="#F7F6F6"/>
<path d="M116.704 1.15197V30.944H120.416V1.15197H116.704ZM106.592 5.88797V9.37597H113.344V5.88797H106.592ZM118.56 5.88797V9.37597H125.536V5.88797H118.56ZM118.784 12.48V15.904H125.024V12.48H118.784ZM118.592 19.072V22.528H125.888V19.072H118.592ZM106.816 12.48V15.904H112.832V12.48H106.816ZM105.152 20.768L106.624 24.256C109.44 23.2 112.896 21.888 116.192 20.544L115.68 17.664C111.84 18.848 107.744 20.096 105.152 20.768ZM111.264 1.21597V15.776C111.264 20.416 110.624 25.632 105.6 28.608C106.432 29.152 107.808 30.4 108.384 31.104C113.984 27.744 114.912 21.728 114.912 15.808V1.21597H111.264ZM98.816 3.87197V7.35997H102.464V18.368H98.816V21.824H105.888V3.87197H98.816ZM96.832 3.87197V24.608H100.224V3.87197H96.832Z" fill="#F7F6F6"/>
</svg>
